<svg height="50" viewBox="0 0 800 200" xmlns="http://www.w3.org/2000/svg">
    <path fill="#0A66C2"
          d="m315.71 117.14 44.15 54.29H325l-39.29-49.86v49.86h-28.57V28.57h28.57v84L322 71.43h36.43l-42.72 45.71ZM201.43 68.57c-12.7.2-24.5 6.6-31.57 17.14V71.43h-27v100h28.57V124.7a24.85 24.85 0 0 1 23.71-27.57c16.57 0 19.15 16.29 19.15 27.57v46.72h28.57v-53c0-31.43-10.43-49.86-40.86-49.86h-.57Zm255.71 55.14c.11 2.1.11 4.2 0 6.29h-75v1a25.57 25.57 0 0 0 26.15 20.43 35.86 35.86 0 0 0 26.28-9.86l19 14.29a61.57 61.57 0 0 1-46.43 18.43 49.85 49.85 0 0 1-52.85-53.58A51.14 51.14 0 0 1 408 68.57c26.86 0 49.14 19 49.14 55.14Zm-26.57-12.28a20.86 20.86 0 0 0-22.71-20 23.43 23.43 0 0 0-25.72 20h48.43Zm-402-82.86H0v142.86h85.71v-28.57H28.57V28.57Zm514.29 0h28.57v142.86h-27v-10a34.86 34.86 0 0 1-28.57 12.86 48.72 48.72 0 0 1-47.29-52.86 48 48 0 0 1 47.14-52.86 37.43 37.43 0 0 1 27.15 10v-50Zm2.14 92.86A23.29 23.29 0 0 0 521.86 95a25.14 25.14 0 0 0-23.29 26.43 25.14 25.14 0 0 0 23.29 26.43A23.29 23.29 0 0 0 545 121.43ZM114.29 25.7a18.14 18.14 0 0 0-17.86 17.15 17.86 17.86 0 1 0 35.71 0c-.52-9.52-8.32-17.01-17.85-17.15ZM100 171.43h28.57v-100H100v100ZM800 14.29V185.7c0 7.9-6.4 14.29-14.29 14.29H614.3c-7.9 0-14.29-6.4-14.29-14.29V14.3C600 6.39 606.4 0 614.29 0H785.7C793.61 0 800 6.4 800 14.29ZM657.14 71.43h-28.57v100h28.57v-100Zm3.57-28.57a17.86 17.86 0 1 0-35.71 0 17.86 17.86 0 0 0 35.71 0Zm110.72 75.57c0-31.43-10.43-49.86-40.86-49.86a38.71 38.71 0 0 0-32.14 17.14V71.43h-27v100H700V124.7a24.86 24.86 0 0 1 23.71-27.57c16.58 0 19.15 16.29 19.15 27.57v46.72h28.57v-53Z"/>
</svg>