<svg height="50" viewBox="0 0 512 512" xmlns="http://www.w3.org/2000/svg">
    <path fill="#3BCAF7" d="M435.2 0H76.8C34.3845 0 0 34.3845 0 76.8V435.2C0 477.615 34.3845 512 76.8 512H435.2C477.615 512 512 477.615 512 435.2V76.8C512 34.3845 477.615 0 435.2 0Z"/>
    <path fill="#C8DAEA" d="M199 404C188 404 189 400 186 390L154 285L399 141"/>
    <path fill="#A9C9DD" d="M199 404C206 404 210 400 215 396L260 353L204 319"/>
    <path fill="#F6FBFE" d="M204 319L339 418C353 427 365 422 369 404L424 146C429 124 415 114 400 121L79 245C58 253 58 266 75 271L158 297L348 176C357 171 365 173 359 180"/>
</svg>
